<svg width="613" height="493" viewBox="0 0 613 493" fill="none" xmlns="http://www.w3.org/2000/svg">
<path d="M611 288C611 343.735 577.224 394.436 522.116 431.294C467.023 468.143 390.797 491 306.5 491C222.203 491 145.977 468.143 90.8837 431.294C35.7765 394.436 2 343.735 2 288C2 232.265 35.7765 181.564 90.8837 144.706C145.977 107.857 222.203 85 306.5 85C390.797 85 467.023 107.857 522.116 144.706C577.224 181.564 611 232.265 611 288Z" fill="black" stroke="white" stroke-width="4"/>
<path d="M90.9968 407.962C88.6713 406.701 86.5257 405.198 84.5599 403.453C82.5941 401.707 80.8917 399.789 79.4529 397.699L85.6195 392.233C86.9006 393.899 88.3006 395.434 89.8195 396.84C91.3962 398.229 92.9722 399.35 94.5476 400.204C95.9354 400.957 97.2459 401.449 98.4792 401.681C99.7328 401.875 100.873 401.741 101.9 401.279C102.928 400.817 103.777 399.966 104.448 398.729C105.038 397.641 105.273 396.58 105.155 395.545C105.036 394.51 104.573 393.53 103.763 392.606C102.954 391.682 101.78 390.803 100.242 389.969L95.2351 387.254L98.9566 380.39L103.57 382.892C105.708 384.051 107.553 384.542 109.106 384.364C110.695 384.207 111.938 383.303 112.833 381.653C113.768 379.927 113.858 378.374 113.102 376.994C112.383 375.633 111.142 374.475 109.38 373.52C108.329 372.95 107.237 372.503 106.102 372.179C104.967 371.855 103.821 371.598 102.663 371.407L104.485 370.866L100.794 375.927L95.0556 372.815L99.979 362.526C102.732 362.999 105.391 363.689 107.957 364.595C110.582 365.484 112.982 366.518 115.157 367.697C117.783 369.121 119.973 370.721 121.728 372.498C123.482 374.274 124.572 376.248 124.996 378.419C125.441 380.553 124.992 382.858 123.65 385.334C122.043 388.297 119.874 390.105 117.141 390.759C114.408 391.413 111.375 391.055 108.041 389.684L108.131 388.713C111.852 391.07 114.194 393.554 115.157 396.163C116.121 398.772 115.799 401.559 114.193 404.522C113.013 406.697 111.546 408.329 109.792 409.416C108.058 410.466 106.148 411.08 104.061 411.259C101.974 411.438 99.8143 411.214 97.5823 410.586C95.33 409.996 93.1348 409.121 90.9968 407.962Z" fill="white"/>
<path d="M142.382 432.743C138.438 431.231 135.557 429.212 133.738 426.686C131.934 424.121 131.086 421.031 131.193 417.416C131.34 413.817 132.322 409.647 134.14 404.906C136.019 400.006 138.151 396.117 140.534 393.238C142.918 390.359 145.685 388.565 148.837 387.854C152.028 387.159 155.695 387.605 159.838 389.194C164.021 390.799 166.982 392.848 168.722 395.343C170.461 397.838 171.205 400.843 170.954 404.356C170.743 407.885 169.736 412 167.933 416.701C166.054 421.601 163.895 425.503 161.456 428.406C159.018 431.309 156.235 433.144 153.108 433.91C149.981 434.675 146.406 434.287 142.382 432.743ZM145.541 425.044C147.174 425.67 148.608 425.626 149.842 424.911C151.131 424.172 152.319 422.8 153.408 420.795C154.552 418.766 155.762 416.146 157.04 412.935C158.277 409.708 159.126 407.017 159.587 404.863C160.087 402.725 160.102 401.017 159.633 399.74C159.178 398.423 158.154 397.459 156.56 396.848C154.927 396.222 153.446 396.271 152.117 396.995C150.844 397.694 149.642 399.039 148.514 401.028C147.401 402.977 146.233 405.545 145.011 408.732C143.804 411.88 142.942 414.542 142.427 416.721C141.951 418.915 141.953 420.697 142.432 422.069C142.911 423.441 143.947 424.433 145.541 425.044Z" fill="white"/>
<path d="M196.932 450.463C192.819 449.501 189.689 447.894 187.543 445.639C185.407 443.344 184.145 440.398 183.759 436.802C183.414 433.217 183.819 428.952 184.974 424.007C186.168 418.897 187.75 414.754 189.719 411.577C191.688 408.401 194.186 406.246 197.211 405.112C200.278 403.989 203.972 403.932 208.293 404.942C212.655 405.961 215.868 407.588 217.931 409.823C219.994 412.058 221.14 414.933 221.37 418.448C221.642 421.973 221.205 426.187 220.059 431.089C218.865 436.199 217.258 440.359 215.237 443.567C213.217 446.776 210.71 448.972 207.716 450.157C204.723 451.341 201.128 451.443 196.932 450.463ZM199.012 442.405C200.715 442.803 202.13 442.563 203.255 441.687C204.431 440.779 205.422 439.258 206.227 437.124C207.084 434.958 207.926 432.197 208.754 428.842C209.54 425.476 210.015 422.695 210.178 420.499C210.382 418.312 210.165 416.618 209.525 415.417C208.895 414.174 207.75 413.359 206.088 412.97C204.384 412.572 202.924 412.823 201.706 413.721C200.539 414.588 199.533 416.083 198.686 418.207C197.848 420.29 197.041 422.994 196.265 426.317C195.498 429.6 195.007 432.355 194.793 434.583C194.621 436.821 194.865 438.587 195.527 439.881C196.188 441.175 197.35 442.016 199.012 442.405Z" fill="white"/>
<path d="M307.421 457.218L304.508 454.938L309.666 456.865L309.59 462.368L290.392 462.104L290.468 456.601L294.909 454.806L294.627 456.658L284.989 440.716L287.775 442.93L280.096 442.825L281.79 440.672L281.57 456.67L280.258 454.348L285.54 456.533L285.464 462.036L266.074 461.77L266.15 456.266L271.615 454.485L270.435 456.517L270.908 422.088L271.969 424.087L266.616 422.349L266.692 416.846L286.087 416.793L286.013 422.168L280.735 424.272L282.047 421.986L281.845 436.64L280.205 434.89L288.716 435.007L285.941 436.697L294.456 422.54L295.266 424.152L290.23 422.674L290.306 417.171L308.42 417.1L308.345 422.603L302.877 424.576L305.206 422.752L294.217 439.947L294.255 437.195L307.421 457.218Z" fill="white"/>
<path d="M348.327 460.213C344.097 460.776 340.369 460.413 337.14 459.121C333.949 457.782 331.324 455.528 329.266 452.359C327.25 449.184 325.918 445.165 325.269 440.301C324.739 436.325 324.784 432.79 325.405 429.694C326.019 426.556 327.125 423.869 328.721 421.633C330.353 419.349 332.416 417.546 334.908 416.224C337.395 414.859 340.288 413.957 343.586 413.518C346.801 413.089 349.741 413.192 352.409 413.826C355.076 414.461 357.424 415.611 359.454 417.278C361.484 418.944 363.151 421.111 364.453 423.778C365.756 426.445 366.644 429.555 367.118 433.108C367.783 438.098 367.449 442.533 366.115 446.413C364.818 450.245 362.65 453.353 359.61 455.738C356.613 458.118 352.852 459.609 348.327 460.213ZM347.972 451.737C349.832 451.489 351.401 450.828 352.679 449.754C353.95 448.637 354.841 446.926 355.352 444.62C355.856 442.271 355.847 439.13 355.322 435.197C354.837 431.56 354.094 428.732 353.094 426.713C352.093 424.694 350.856 423.331 349.385 422.623C347.913 421.915 346.183 421.694 344.195 421.959C342.334 422.207 340.765 422.868 339.488 423.943C338.248 424.969 337.393 426.632 336.925 428.933C336.499 431.228 336.551 434.363 337.081 438.339C337.555 441.891 338.274 444.701 339.238 446.768C340.197 448.792 341.396 450.203 342.837 451.001C344.272 451.757 345.984 452.002 347.972 451.737Z" fill="white"/>
<path d="M403.767 433.231L399.269 434.497L400.975 432.288L404.147 443.562L402.114 442.007L409.455 441.869L410.946 447.167L390.739 452.854L389.248 447.555L394.44 444.033L393.428 446.579L384.083 413.372L386.556 415.07L380.06 414.904L378.569 409.605L393.514 405.067L398.443 403.68C401.975 402.686 405.023 402.493 407.588 403.102C410.194 403.698 412.305 404.899 413.921 406.705C415.567 408.458 416.753 410.628 417.482 413.216C418.256 415.968 418.33 418.673 417.704 421.331C417.108 423.936 415.686 426.287 413.439 428.382C411.18 430.436 407.956 432.052 403.767 433.231ZM398.912 411.726L393.86 413.148L395.011 411.095L399.727 427.852L397.12 426.857L401.617 425.592C403.958 424.933 405.519 423.785 406.299 422.147C407.12 420.497 407.23 418.605 406.629 416.469C406.074 414.498 405.122 413.081 403.771 412.22C402.462 411.348 400.842 411.183 398.912 411.726Z" fill="white"/>
<path d="M463.809 429.837C459.907 431.563 456.226 432.258 452.765 431.923C449.326 431.531 446.175 430.102 443.311 427.637C440.487 425.154 438.082 421.669 436.097 417.181C434.475 413.513 433.528 410.107 433.256 406.961C432.967 403.776 433.276 400.887 434.181 398.294C435.109 395.644 436.584 393.336 438.606 391.368C440.611 389.362 443.135 387.685 446.179 386.339C449.144 385.027 451.996 384.302 454.734 384.164C457.472 384.026 460.049 384.473 462.465 385.504C464.88 386.535 467.087 388.148 469.084 390.343C471.082 392.539 472.806 395.276 474.255 398.553C476.292 403.158 477.214 407.509 477.02 411.607C476.848 415.648 475.638 419.24 473.388 422.381C471.177 425.505 467.985 427.99 463.809 429.837ZM461.094 421.8C462.811 421.041 464.132 419.967 465.058 418.578C465.966 417.15 466.341 415.257 466.185 412.9C466.012 410.504 465.123 407.492 463.518 403.863C462.033 400.507 460.528 398.001 459.002 396.343C457.475 394.685 455.907 393.723 454.295 393.456C452.684 393.189 450.962 393.461 449.128 394.272C447.411 395.032 446.09 396.106 445.165 397.495C444.261 398.827 443.907 400.664 444.102 403.003C444.336 405.326 445.265 408.321 446.887 411.989C448.337 415.266 449.814 417.762 451.319 419.476C452.806 421.151 454.353 422.17 455.96 422.532C457.549 422.855 459.261 422.611 461.094 421.8Z" fill="white"/>
<path d="M508.783 380.71L508.836 379.468C511.402 377.859 513.813 376.724 516.069 376.065C518.361 375.383 520.457 375.353 522.358 375.974C524.258 376.596 525.934 378.063 527.384 380.376C528.858 382.726 529.526 385.077 529.39 387.429C529.23 389.744 528.273 392.032 526.517 394.292C524.774 396.492 522.277 398.613 519.023 400.653L502.324 411.125L499.399 406.463L503.205 401.81L503.134 404.347L484.875 375.231L487.583 376.176L481.378 377.726L478.454 373.063L490.917 364.869L495.96 361.707C498.599 360.052 501.062 358.961 503.349 358.433C505.673 357.882 507.783 357.994 509.679 358.769C511.589 359.485 513.258 360.982 514.686 363.259C516.658 366.404 517.131 369.406 516.104 372.266C515.077 375.126 512.637 377.941 508.783 380.71ZM498.231 369.424L494.056 372.042L494.581 369.748L501.96 381.514L499.734 381.097L502.77 379.193C503.819 378.535 504.745 377.803 505.548 376.997C506.388 376.168 506.882 375.229 507.03 374.179C507.214 373.107 506.886 371.903 506.047 370.565C505.254 369.3 504.412 368.519 503.52 368.222C502.665 367.902 501.783 367.901 500.875 368.219C499.979 368.478 499.098 368.88 498.231 369.424ZM514.008 394.582C515.092 393.902 516.054 393.147 516.894 392.318C517.711 391.453 518.212 390.485 518.396 389.413C518.58 388.341 518.218 387.081 517.311 385.636C516.473 384.298 515.578 383.474 514.628 383.164C513.655 382.817 512.703 382.784 511.772 383.066C510.877 383.325 510.068 383.682 509.345 384.135L503.814 387.603L504.204 385.092L512.126 397.726L509.833 397.2L514.008 394.582Z" fill="white"/>
<path d="M188.151 124.154L183.491 127.415L184.256 126.132L194.641 162.502L193.296 161.755L198.922 161.879L200.363 166.925L183.317 171.792L181.876 166.746L186.483 163.767L185.779 165.032L175.394 128.662L176.985 129.339L171.192 129.329L169.751 124.283L186.71 119.108L188.151 124.154ZM188.373 161.763C183.245 163.227 178.881 163.874 175.283 163.703C171.714 163.48 168.828 162.463 166.624 160.651C164.45 158.787 162.877 156.153 161.905 152.747C160.85 149.055 160.839 145.752 161.871 142.84C162.944 139.915 165.055 137.361 168.202 135.175C171.391 132.978 175.631 131.124 180.924 129.612C184.903 128.476 188.423 127.826 191.482 127.663C194.583 127.487 197.237 127.772 199.447 128.517C201.656 129.261 203.461 130.454 204.861 132.096C206.303 133.725 207.381 135.791 208.095 138.294C209.103 141.822 209.061 145.095 207.971 148.113C206.909 151.079 204.755 153.713 201.508 156.015C198.249 158.277 193.871 160.193 188.373 161.763ZM187.627 155.653C190.47 154.885 192.726 153.93 194.397 152.788C196.067 151.645 197.137 150.186 197.606 148.411C198.105 146.582 197.973 144.334 197.212 141.668C196.544 139.329 195.601 137.58 194.382 136.419C193.192 135.206 191.607 134.549 189.626 134.449C187.686 134.337 185.198 134.715 182.162 135.582C179.331 136.39 177.081 137.365 175.41 138.508C173.781 139.639 172.746 141.066 172.306 142.789C171.896 144.459 172.059 146.586 172.797 149.171C173.442 151.428 174.324 153.195 175.443 154.473C176.591 155.698 178.153 156.428 180.128 156.662C182.091 156.856 184.591 156.52 187.627 155.653Z" fill="white"/>
<path d="M259.624 140.739L266.17 139.967L267.535 152.631L233.912 156.596L233.267 151.129L238.699 148.556L237.548 150.818L233.523 116.686L235.105 118.626L229.295 117.443L228.65 111.977L243.676 109.883L261.6 107.769L263.032 119.909L256.485 120.681L254.476 115.118L256.619 116.347L243.207 117.929L244.665 116.081L246.284 129.81L244.437 128.353L258.61 126.681L259.51 134.308L245.336 135.98L246.756 133.815L248.495 148.56L246.648 147.103L260.821 145.431L258.982 147.324L259.624 140.739Z" fill="white"/>
<path d="M306.81 135.404L302.14 135.266L304.428 133.669L304.082 145.376L302.607 143.283L309.653 145.348L309.49 150.85L288.508 150.229L288.67 144.727L294.678 142.92L292.951 145.046L293.971 110.565L295.822 112.925L289.674 110.822L289.836 105.321L305.455 105.463L310.573 105.614C314.24 105.723 317.207 106.451 319.472 107.798C321.78 109.147 323.435 110.925 324.436 113.131C325.482 115.297 325.965 117.723 325.886 120.409C325.801 123.267 325.063 125.87 323.67 128.219C322.321 130.527 320.261 132.344 317.49 133.671C314.72 134.955 311.16 135.533 306.81 135.404ZM308.613 113.432L303.367 113.276L305.079 111.662L304.565 129.063L302.375 127.333L307.045 127.471C309.476 127.543 311.308 126.915 312.543 125.585C313.82 124.257 314.492 122.484 314.557 120.266C314.618 118.219 314.133 116.583 313.102 115.357C312.113 114.133 310.617 113.491 308.613 113.432Z" fill="white"/>
<path d="M402.944 122.6L396.841 123.714L398.843 121.247L391.906 155.495L390.883 153.133L396.147 156.158L395.054 161.553L376.676 157.83L377.768 152.436L384.058 151.686L381.87 153.463L387.473 125.8L389.153 126.206L374.735 145.488L367.897 144.429L362.633 120.769L364.201 121.087L358.598 148.749L357.863 146.576L362.839 149.412L361.747 154.807L344.622 151.339L345.715 145.944L351.741 145.206L349.88 146.983L356.816 112.735L357.712 115.724L352.448 112.699L353.541 107.305L371.168 110.548L375.377 134.582L374.122 134.328L387.852 114.254L404.036 117.205L402.944 122.6Z" fill="white"/>
<path d="M454.689 176.408L452.983 173.054L457.139 176.822L455.124 181.943L437.258 174.912L439.273 169.79L444.515 169.927L443.059 171.005L443.753 163.3L444.786 165.22L430.196 159.477L431.796 158.731L427.074 164.438L427.234 163.332L430.876 166.485L428.86 171.607L412.781 165.278L414.797 160.157L420.264 160.245L417.145 161.356L445.564 129.692L456.341 133.59L454.689 176.408ZM435.03 154.708L434.914 153.081L445.931 157.417L444.286 158.626L446.872 136.328L449.231 137.325L435.03 154.708Z" fill="white"/>
<path d="M252.221 191.001C251.307 191.21 250.863 191.857 250.909 192.061C250.339 192.679 250.849 193.979 251.169 194.717L252.605 195.74C253.185 196.222 252.772 195.86 252.772 195.86L253.185 196.222C253.42 196.487 253.099 196.244 253.376 196.448C253.575 196.632 253.782 196.809 253.988 196.986C255.809 199.387 261.199 204.968 259.189 207.818C258.688 208.528 257.746 208.625 256.97 208.383C254.36 207.568 252.795 206.783 249.887 206.984C243.666 207.411 237.461 207.267 231.289 207.613C229.198 207.73 228.048 209.5 226.159 209.832C224.137 210.188 221.124 208.443 219.425 207.498C215.973 205.577 213.934 201.923 214.781 197.938C215.085 196.504 216.164 195.178 216.332 193.757C216.48 192.507 215.322 192.133 214.294 192.177C209.93 192.364 208.919 199.047 208.436 202.446C207.218 211.008 212.895 219.43 221.349 221.447L221.028 223.057C213.601 220.631 207.229 221.46 201.148 226.696C199.304 228.284 196.143 231.224 197.217 234C198.048 236.151 201.067 236.866 203.072 237.291C208.846 238.512 214.298 238.351 220.066 237.227C220.065 239.848 219.854 242.895 218.662 245.278C216.127 250.34 210.295 256.414 213.862 262.916C214.544 264.159 216.099 263.808 217.18 264.468C221.688 267.215 225.305 268.172 230.648 266.964C232.062 266.642 235.316 264.472 236.615 265.206C237.522 265.718 237.981 267.257 238.423 268.143C239.716 270.742 241.139 273.27 242.432 275.872C245.927 282.892 249.678 289.784 253.173 296.805C254.589 299.652 256.617 302.677 257.575 305.74C257.575 305.745 257.575 305.75 257.575 305.754C257.529 307.809 257.618 309.855 257.788 311.896C257.654 313.345 257.536 314.79 257.717 316.127C258.605 322.66 260.381 329.607 260.621 336.288C260.661 338.434 260.575 340.585 260.3 342.745C259.405 349.997 257.023 356.93 254.54 363.786C252.276 367.883 248.941 371.596 247.642 376.027L254.376 377.637L254.696 377.959C257.611 377.959 264.364 378.996 266.362 376.275C267.92 374.156 266.691 370.399 266.467 367.317C266.515 367.316 266.563 367.314 266.611 367.313C266.511 366.625 266.44 365.758 266.587 364.989C266.631 364.803 266.685 364.624 266.753 364.453C267.423 362.775 269.748 363.284 270.271 361.516C270.784 359.773 270.065 357.5 269.857 355.738C269.542 353.059 269.613 350.058 269.796 347.365C270.304 339.915 272.933 332.47 273.006 325.056C273.023 324.948 273.041 324.841 273.057 324.733C273.193 323.051 273.153 321.145 272.514 319.535C272.459 319.258 272.399 318.981 272.332 318.704C277.931 319.46 283.42 318.794 288.685 316.449C295.195 331.621 309.178 344.316 304.16 362.501C303.493 364.913 302.223 366.968 301.303 369.264C300.844 370.414 301.024 371.744 300.357 372.807C298.574 375.647 295.682 377.615 294.457 380.858C299.283 383.611 304.275 383.267 309.528 382.272C311.028 381.988 313.68 381.795 314.787 380.633C315.383 380.005 315.232 379.064 315.626 378.336C316.088 377.489 316.97 376.964 317.294 376.021C318.089 373.702 316.704 369.689 316.261 367.332C323.2 366.72 319.968 358.994 318.827 354.45C316.691 345.971 314.661 337.462 312.452 329.009C311.237 324.368 309.499 319.596 308.886 314.839C315.54 315.367 322.338 315.354 328.767 313.229C331.281 312.398 333.769 311.435 336.142 310.25C337.02 309.812 338.502 308.678 339.534 308.933C340.451 309.165 341.227 310.282 341.913 310.881C343.841 312.569 347.631 314.111 348.958 316.25C349.782 317.577 348.83 319.959 350.122 321.067C351.709 322.426 353.111 318.739 353.457 317.737C354.82 319.103 355.955 320.414 357.946 320.636L358.267 314.839C360.704 315.216 361.688 318.211 364.006 318.517C366.838 318.89 365.013 312.949 365.516 311.673C365.933 310.614 367.152 309.886 367.886 309.042H368.207C373.28 318.617 373.664 326.806 371.253 337.382C370.224 341.9 368.793 343.865 366.078 347.42C365.407 348.296 365.632 348.885 366.283 349.62V349.942L362.756 354.128C364.898 355.378 366.719 355.738 369.169 355.738L364.481 360.891L364.038 363.561L360.191 368.62V368.942C366.94 373.782 373.376 372.684 380.071 368.62C378.894 365.712 378.278 361.255 380.1 358.369C381.289 356.482 383.992 355.41 383.845 352.84C383.684 350.032 382.421 347.32 382.328 344.467C382.142 338.644 383.996 332.02 385.484 326.433C386.628 322.14 389.998 318.327 390.585 313.873C390.982 310.839 388.777 308.066 388.238 305.178C387.51 301.281 388.674 296.743 389.504 292.94C391.342 284.541 393.99 276.091 394.766 267.499C395.148 263.267 394.503 258.282 394.208 253.973C393.836 248.559 393.121 242.46 390.652 237.549C394.83 241.613 395.411 247.854 395.812 253.329C396.716 265.737 395.597 279.028 393.67 291.33C392.564 298.395 386.959 308.179 395.142 313.718C396.604 314.707 397.899 313.57 398.989 312.556C401.433 310.272 402.613 307.851 401.683 304.534C400.785 301.32 398.236 298.544 397.822 295.194C397.235 290.409 398.954 284.87 399.281 280.058C400.352 264.388 401.519 246.489 394.096 232.074C389.046 222.263 378.695 220.235 368.527 220.486C358.93 220.722 349.635 223.682 340.31 225.437C333.23 226.767 325.695 227.134 318.506 227.134C310.528 227.134 302.412 226.854 294.457 226.306C291.501 226.103 288.413 226.651 285.479 226.233C283.071 225.888 280.826 223.875 278.425 223.195C272.842 221.612 267.606 222.263 262.071 223.701C261.95 221.353 263.781 220.978 265.265 219.501C266.926 217.847 268.34 215.628 269.094 213.396C272.627 202.924 262.636 191.979 252.452 191.009C252.371 191.001 252.294 190.998 252.221 191.001ZM266.01 373.509C266.011 373.518 266.012 373.527 266.013 373.536C266.009 373.539 266.005 373.541 266.001 373.544C266.004 373.532 266.007 373.521 266.01 373.509L266.01 373.509Z" fill="white"/>
</svg>
