<svg width="18" height="19" viewBox="0 0 18 19" fill="none" xmlns="http://www.w3.org/2000/svg">
<path d="M8.56096 0.154676C8.35776 0.257784 8.21229 0.423922 8.15173 0.622721C8.09097 0.821697 8.12216 1.02915 8.23925 1.20747C8.39578 1.44528 8.68751 1.59306 9.00077 1.59306C9.15409 1.59306 9.30559 1.55739 9.43918 1.48977C9.85867 1.2772 10.0027 0.804922 9.76069 0.436808C9.60416 0.19899 9.31263 0.0513916 8.99937 0.0513916C8.84606 0.0513916 8.69436 0.0872326 8.56096 0.154676ZM6.4971 1.28974C6.12006 1.48095 5.99029 1.90574 6.20798 2.2366C6.34861 2.45076 6.61118 2.58335 6.89285 2.58335C7.03087 2.58335 7.16708 2.55122 7.28719 2.49048C7.66423 2.29927 7.794 1.87431 7.57631 1.54345C7.43547 1.32964 7.17311 1.19687 6.89164 1.19687C6.75362 1.19687 6.61721 1.22883 6.4971 1.28974ZM12.2982 2.49331C12.1048 2.78727 12.2199 3.16439 12.5549 3.33405C12.6615 3.38808 12.7826 3.41668 12.9054 3.41668C13.1553 3.41668 13.3884 3.29875 13.5134 3.1086C13.6069 2.96629 13.6319 2.80033 13.5834 2.64161C13.5349 2.48289 13.4188 2.34995 13.2565 2.26767C13.1498 2.21382 13.0287 2.18522 12.9062 2.18522C12.6561 2.18522 12.4231 2.30316 12.2982 2.49331ZM4.43364 2.4248C4.09864 2.59447 3.98336 2.97177 4.17691 3.2659C4.30185 3.45588 4.53464 3.57381 4.78492 3.57381H4.78512C4.90745 3.57381 5.02857 3.54539 5.13541 3.49136C5.4704 3.32134 5.58528 2.94405 5.39213 2.65009C5.26719 2.46011 5.034 2.34218 4.78392 2.34218C4.66139 2.34218 4.54027 2.37078 4.43364 2.4248ZM10.2669 3.28586C10.185 3.41033 10.1631 3.55528 10.2055 3.69405C10.248 3.833 10.3494 3.94899 10.4912 4.02067C10.5844 4.06817 10.6904 4.09306 10.7975 4.09306C11.0162 4.09306 11.2198 3.98995 11.329 3.82381C11.498 3.56675 11.3974 3.2373 11.1047 3.08882C11.0113 3.04151 10.9055 3.01643 10.7983 3.01643C10.5798 3.01643 10.3759 3.11972 10.2669 3.28586ZM14.3294 3.52208C14.2238 3.68257 14.1958 3.86954 14.2506 4.04839C14.3051 4.22706 14.4359 4.37661 14.6184 4.4693C14.7385 4.53003 14.8749 4.56234 15.0131 4.56234C15.2946 4.56234 15.5569 4.42922 15.6976 4.21559C15.8032 4.0551 15.8312 3.86831 15.7766 3.68946C15.7219 3.51061 15.5911 3.36107 15.4085 3.26855C15.2883 3.20764 15.1521 3.17551 15.0141 3.17551C14.7324 3.17551 14.4701 3.30845 14.3294 3.52208ZM8.6519 4.46559C8.6519 4.63402 8.80803 4.7712 8.99997 4.7712C9.19191 4.7712 9.34824 4.63402 9.34824 4.46559C9.34824 4.29715 9.19191 4.16015 8.99997 4.16015C8.80803 4.16015 8.6519 4.29715 8.6519 4.46559ZM16.3607 4.55122C16.1187 4.91951 16.2627 5.39179 16.6822 5.60436C16.8156 5.6718 16.9673 5.70764 17.1206 5.70764C17.4339 5.70764 17.7254 5.55987 17.882 5.32205C17.9992 5.14391 18.0304 4.9361 17.9697 4.7373C17.9091 4.5385 17.7636 4.37219 17.5606 4.26926C17.427 4.20181 17.2753 4.1658 17.122 4.1658C16.809 4.1658 16.5172 4.31357 16.3607 4.55122ZM0.000290774 4.93663C0.000290774 5.36178 0.394432 5.70764 0.87871 5.70764C1.36299 5.70764 1.75693 5.36178 1.75693 4.93663C1.75693 4.51185 1.36299 4.16598 0.87871 4.16598C0.394432 4.16598 0.000290774 4.51185 0.000290774 4.93663ZM4.16786 4.47071C4.02581 4.54274 3.92441 4.65856 3.88216 4.79769C3.83971 4.93628 3.86144 5.08141 3.94332 5.20588C4.05237 5.37184 4.25618 5.47495 4.47488 5.47495C4.58192 5.47495 4.68795 5.45005 4.7811 5.40291C5.07384 5.25443 5.17444 4.9248 5.00543 4.66774C4.89618 4.50178 4.69257 4.39867 4.47408 4.39867C4.36684 4.39867 4.26081 4.42357 4.16786 4.47071ZM10.6713 5.53338C10.6713 5.74472 10.8671 5.9165 11.1077 5.9165C11.3485 5.9165 11.5443 5.74472 11.5443 5.53338C11.5443 5.32223 11.3485 5.15044 11.1077 5.15044C10.8671 5.15044 10.6713 5.32223 10.6713 5.53338ZM6.20416 5.49913C6.14581 5.58741 6.13032 5.69069 6.1605 5.78974C6.19088 5.88861 6.26311 5.97124 6.36391 6.02226C6.4303 6.05616 6.50575 6.07364 6.582 6.07364C6.73753 6.07364 6.88259 6.00037 6.96045 5.88225C7.0186 5.79345 7.03409 5.69034 7.00391 5.59147C6.97353 5.4926 6.9015 5.40997 6.8005 5.35877C6.73411 5.32523 6.65886 5.30739 6.58241 5.30739C6.42688 5.30739 6.28182 5.38084 6.20416 5.49913ZM12.6907 6.60136C12.6907 6.85542 12.9263 7.06199 13.2156 7.06199C13.5051 7.06199 13.7405 6.85542 13.7405 6.60136C13.7405 6.34729 13.5051 6.14073 13.2156 6.14073C12.9263 6.14073 12.6907 6.34729 12.6907 6.60136ZM0.0888173 7.07258C0.0888173 7.45482 0.443122 7.76573 0.87871 7.76573C1.3145 7.76573 1.66881 7.45482 1.66881 7.07258C1.66881 6.69034 1.3145 6.37925 0.87871 6.37925C0.443122 6.37925 0.0888173 6.69034 0.0888173 7.07258ZM4.21192 6.67357C3.96143 6.80069 3.87512 7.08282 4.01998 7.30298C4.11333 7.44493 4.28757 7.53321 4.47468 7.53321C4.56642 7.53321 4.65716 7.51184 4.73684 7.47159C4.98733 7.34447 5.07364 7.06216 4.92878 6.84235C4.83542 6.70005 4.66119 6.61195 4.47408 6.61195C4.38233 6.61195 4.29159 6.63314 4.21192 6.67357ZM14.7103 7.66933C14.7103 7.96612 14.9855 8.20746 15.3235 8.20746C15.6616 8.20746 15.9366 7.96612 15.9366 7.66933C15.9366 7.37254 15.6616 7.1312 15.3235 7.1312C14.9855 7.1312 14.7103 7.37254 14.7103 7.66933ZM16.4199 8.89426C16.4199 9.23395 16.7345 9.51008 17.1214 9.51008C17.5081 9.51008 17.823 9.23395 17.823 8.89426C17.823 8.55492 17.5081 8.27862 17.1214 8.27862C16.7345 8.27862 16.4199 8.55492 16.4199 8.89426ZM13.3072 8.56234C13.0991 8.66827 13.0275 8.90291 13.1476 9.086C13.2255 9.20394 13.3705 9.27738 13.5261 9.27738C13.6023 9.27738 13.6776 9.25955 13.7438 9.22618C13.9524 9.1206 14.0242 8.88578 13.9037 8.70287C13.8258 8.58441 13.681 8.51114 13.5253 8.51114C13.4492 8.51114 13.3738 8.52897 13.3072 8.56234ZM0.177141 9.20853C0.177141 9.54769 0.492012 9.82399 0.87871 9.82399C1.26561 9.82399 1.58048 9.54769 1.58048 9.20853C1.58048 8.86901 1.26561 8.59271 0.87871 8.59271C0.492012 8.59271 0.177141 8.86901 0.177141 9.20853ZM4.25618 8.87643C4.15518 8.9278 4.08295 9.01025 4.05257 9.1093C4.02259 9.20817 4.03809 9.31128 4.09643 9.40009C4.17409 9.5182 4.31895 9.59165 4.47468 9.59165C4.55093 9.59165 4.62638 9.57382 4.69257 9.54027C4.79357 9.48889 4.8658 9.40644 4.89618 9.30757C4.92636 9.2087 4.91087 9.10542 4.85252 9.01696C4.77466 8.89867 4.6298 8.82523 4.47428 8.82523C4.39782 8.82523 4.32237 8.84306 4.25618 8.87643ZM2.06335 10.4333C2.06335 10.7301 2.33839 10.9714 2.67639 10.9714C3.0148 10.9714 3.28984 10.7301 3.28984 10.4333C3.28984 10.1367 3.0148 9.89514 2.67639 9.89514C2.33839 9.89514 2.06335 10.1367 2.06335 10.4333ZM16.3313 11.0302C16.3313 11.4124 16.6858 11.7234 17.1214 11.7234C17.557 11.7234 17.9113 11.4124 17.9113 11.0302C17.9113 10.6478 17.557 10.3369 17.1214 10.3369C16.6858 10.3369 16.3313 10.6478 16.3313 11.0302ZM13.2241 11.1914C13.1776 11.2618 13.1653 11.3443 13.1895 11.4232C13.2134 11.5021 13.2709 11.568 13.3516 11.6088C13.4045 11.6356 13.4647 11.6497 13.5255 11.6497C13.6494 11.6497 13.7653 11.5913 13.8271 11.4968C13.923 11.351 13.8659 11.1639 13.6999 11.0796C13.6468 11.0528 13.5866 11.0387 13.5259 11.0387C13.4017 11.0387 13.286 11.0971 13.2241 11.1914ZM4.30044 11.0796C4.21977 11.1202 4.16222 11.1863 4.13808 11.265C4.11394 11.3441 4.12641 11.4262 4.17289 11.4968C4.23506 11.5911 4.35054 11.6497 4.47448 11.6497C4.53544 11.6497 4.5956 11.6356 4.64831 11.6088C4.72899 11.568 4.78673 11.5021 4.81068 11.4232C4.83462 11.3443 4.82235 11.2618 4.77587 11.1914C4.7139 11.0971 4.59841 11.0387 4.47428 11.0387C4.41331 11.0387 4.35316 11.0528 4.30044 11.0796ZM11.0397 12.2205C10.9194 12.4034 10.9912 12.6383 11.1994 12.7438C11.266 12.7774 11.3411 12.7952 11.4175 12.7952C11.5731 12.7952 11.7181 12.7218 11.7958 12.6037C11.9161 12.4207 11.8445 12.1861 11.636 12.0802C11.5696 12.0466 11.4944 12.0291 11.4181 12.0291C11.2624 12.0291 11.1176 12.1022 11.0397 12.2205ZM6.45565 12.5692C6.45565 12.7804 6.65141 12.9522 6.89225 12.9522C7.13288 12.9522 7.32864 12.7804 7.32864 12.5692C7.32864 12.3579 7.13288 12.1861 6.89225 12.1861C6.65141 12.1861 6.45565 12.3579 6.45565 12.5692ZM0.11799 12.7807C0.000692981 12.9587 -0.0304918 13.1667 0.0304704 13.3655C0.0910303 13.5641 0.236293 13.7306 0.439501 13.8333C0.573094 13.901 0.724595 13.9368 0.878107 13.9368H0.878308C1.19117 13.9368 1.4831 13.789 1.63943 13.5514C1.75673 13.3731 1.78791 13.1651 1.72715 12.9665C1.66639 12.7677 1.52093 12.6012 1.31792 12.4984C1.18433 12.431 1.03283 12.395 0.879515 12.395C0.566253 12.395 0.27452 12.5427 0.11799 12.7807ZM16.243 13.166C16.243 13.5908 16.6372 13.9366 17.1214 13.9366C17.6057 13.9366 17.9997 13.5908 17.9997 13.166C17.9997 12.7408 17.6057 12.3951 17.1214 12.3951C16.6372 12.3951 16.243 12.7408 16.243 13.166ZM13.219 12.6999C12.9263 12.8484 12.8255 13.178 12.9945 13.435C13.104 13.6008 13.3074 13.7039 13.5261 13.7039C13.6331 13.7039 13.7391 13.6792 13.8323 13.6321C14.125 13.4834 14.2256 13.154 14.0568 12.8967C13.9476 12.7309 13.7438 12.6278 13.5253 12.6278C13.418 12.6278 13.3122 12.6526 13.219 12.6999ZM8.85551 13.2497C8.71085 13.4698 8.79696 13.752 9.04765 13.8787C9.12733 13.9193 9.21807 13.9407 9.30961 13.9407C9.49672 13.9407 9.67116 13.8522 9.76451 13.7103C9.90917 13.4905 9.82306 13.2082 9.57237 13.0811C9.4927 13.0408 9.40196 13.0193 9.31042 13.0193C9.1233 13.0193 8.94887 13.1077 8.85551 13.2497ZM2.30237 13.887C2.19694 14.0475 2.16898 14.2345 2.2235 14.4131C2.27803 14.592 2.4088 14.7415 2.59149 14.8342C2.7116 14.895 2.84801 14.9273 2.98603 14.9273C3.26771 14.9273 3.53007 14.7942 3.6705 14.5805C3.77613 14.42 3.8043 14.2332 3.74977 14.0544C3.69505 13.8755 3.56427 13.7262 3.38158 13.6335C3.26147 13.5726 3.12526 13.5404 2.98704 13.5404C2.70537 13.5404 2.44301 13.6734 2.30237 13.887ZM6.67113 14.279C6.58925 14.4033 6.56752 14.5484 6.60977 14.6872C6.65222 14.8259 6.75382 14.9421 6.89567 15.014C6.98882 15.0613 7.09445 15.0862 7.20168 15.0862C7.42038 15.0862 7.62399 14.9831 7.73344 14.8169C7.90225 14.5599 7.80165 14.2302 7.50891 14.0819C7.41556 14.0346 7.30993 14.0097 7.20269 14.0097C6.98399 14.0097 6.78038 14.1128 6.67113 14.279ZM12.8649 14.6114C12.5299 14.7811 12.4145 15.1586 12.6082 15.4525C12.7332 15.6425 12.9661 15.7604 13.2164 15.7604C13.3388 15.7604 13.4599 15.732 13.5665 15.678C13.9013 15.508 14.0168 15.1307 13.8232 14.8369C13.6983 14.6467 13.4653 14.5288 13.215 14.5288C13.0927 14.5288 12.9716 14.5574 12.8649 14.6114ZM4.48675 14.994C4.2934 15.288 4.40849 15.6653 4.74368 15.8349C4.85031 15.889 4.97123 15.9174 5.09376 15.9174C5.34385 15.9174 5.57703 15.7996 5.70197 15.6095C5.89552 15.3157 5.78004 14.9384 5.44505 14.7684C5.33861 14.7144 5.21749 14.6859 5.09517 14.6859C4.84488 14.6859 4.61189 14.804 4.48675 14.994ZM10.7127 15.6121C10.5301 15.7048 10.3993 15.8542 10.3448 16.0332C10.2902 16.2121 10.3182 16.3988 10.4238 16.5592C10.5645 16.773 10.8268 16.9057 11.1085 16.9057C11.2465 16.9057 11.3829 16.8738 11.5028 16.8129C11.6855 16.7202 11.8163 16.5708 11.871 16.3918C11.9256 16.2129 11.8974 16.0263 11.792 15.866C11.6513 15.652 11.389 15.5193 11.1073 15.5193C10.9693 15.5193 10.8329 15.5516 10.7127 15.6121ZM8.56096 16.613C8.35776 16.7158 8.21229 16.8821 8.15173 17.0809C8.09097 17.2799 8.12216 17.4877 8.23925 17.666C8.39578 17.9034 8.68771 18.0514 9.00077 18.0514H9.00098C9.15409 18.0514 9.30579 18.0156 9.43918 17.9479C9.64239 17.845 9.78765 17.6787 9.84841 17.4799C9.90917 17.2811 9.87799 17.0735 9.76069 16.8951C9.60416 16.6573 9.31263 16.5095 8.99937 16.5095C8.84606 16.5095 8.69436 16.5454 8.56096 16.613Z" fill="url(#paint0_linear_66_2)"/>
<defs>
<linearGradient id="paint0_linear_66_2" x1="2.51327" y1="17.1436" x2="15.7088" y2="-4.23372" gradientUnits="userSpaceOnUse">
<stop stop-color="#4BC9D4"/>
<stop offset="1" stop-color="#006C9B"/>
</linearGradient>
</defs>
</svg>
