<svg width="144" height="30" viewBox="0 0 144 30" fill="none" xmlns="http://www.w3.org/2000/svg">
<path d="M14.2683 0.17214C13.9296 0.343987 13.6871 0.620882 13.5862 0.952213C13.4849 1.28384 13.5369 1.62959 13.7321 1.92679C13.993 2.32315 14.4792 2.56945 15.0013 2.56945C15.2568 2.56945 15.5093 2.51 15.732 2.3973C16.4311 2.04302 16.6712 1.25588 16.2678 0.642359C16.0069 0.245996 15.521 -1.90735e-06 14.9989 -1.90735e-06C14.7434 -1.90735e-06 14.4906 0.0597343 14.2683 0.17214ZM10.8285 2.06391C10.2001 2.38259 9.98381 3.09057 10.3466 3.64201C10.581 3.99894 11.0186 4.21993 11.4881 4.21993C11.7181 4.21993 11.9451 4.16637 12.1453 4.06515C12.7737 3.74647 12.99 3.03819 12.6272 2.48676C12.3925 2.13041 11.9552 1.90913 11.4861 1.90913C11.256 1.90913 11.0287 1.96239 10.8285 2.06391ZM20.497 4.06986C20.1747 4.55979 20.3665 5.18832 20.9248 5.4711C21.1026 5.56115 21.3044 5.60882 21.509 5.60882C21.9254 5.60882 22.3141 5.41225 22.5223 5.09534C22.6782 4.85817 22.7198 4.58157 22.639 4.31703C22.5582 4.0525 22.3647 3.83092 22.0941 3.6938C21.9164 3.60405 21.7145 3.55638 21.5103 3.55638C21.0935 3.55638 20.7052 3.75294 20.497 4.06986ZM7.38939 3.95569C6.83107 4.23847 6.63893 4.86729 6.96152 5.35752C7.16975 5.67414 7.55773 5.8707 7.97487 5.8707H7.97521C8.17908 5.8707 8.38095 5.82333 8.55901 5.73329C9.11733 5.44992 9.3088 4.82109 8.98688 4.33116C8.77865 4.01454 8.39001 3.81797 7.9732 3.81797C7.76898 3.81797 7.56711 3.86564 7.38939 3.95569ZM17.1115 5.39077C16.975 5.59822 16.9385 5.83981 17.0092 6.07109C17.08 6.30267 17.249 6.496 17.4854 6.61547C17.6406 6.69462 17.8174 6.73611 17.9958 6.73611C18.3603 6.73611 18.6996 6.56427 18.8817 6.28737C19.1634 5.85893 18.9957 5.30985 18.5078 5.06238C18.3522 4.98352 18.1758 4.94174 17.9971 4.94174C17.6329 4.94174 17.2932 5.11388 17.1115 5.39077ZM23.8824 5.78449C23.7064 6.05197 23.6597 6.36358 23.751 6.66166C23.8418 6.95945 24.0598 7.20869 24.3639 7.36317C24.5641 7.4644 24.7915 7.51824 25.0218 7.51824C25.491 7.51824 25.9282 7.29637 26.1626 6.94032C26.3387 6.67284 26.3853 6.36152 26.2944 6.06344C26.2032 5.76536 25.9852 5.51612 25.6808 5.36193C25.4806 5.26042 25.2535 5.20686 25.0235 5.20686C24.5541 5.20686 24.1168 5.42844 23.8824 5.78449ZM14.4198 7.35699C14.4198 7.63771 14.68 7.86635 14.9999 7.86635C15.3199 7.86635 15.5804 7.63771 15.5804 7.35699C15.5804 7.07627 15.3199 6.84793 14.9999 6.84793C14.68 6.84793 14.4198 7.07627 14.4198 7.35699ZM27.2679 7.4997C26.8645 8.11352 27.1045 8.90066 27.8037 9.25495C28.026 9.36735 28.2789 9.42708 28.5344 9.42708C29.0565 9.42708 29.5424 9.18079 29.8032 8.78443C29.9987 8.48753 30.0507 8.14118 29.9495 7.80985C29.8485 7.47852 29.6061 7.20133 29.2677 7.02978C29.0451 6.91737 28.7922 6.85734 28.5367 6.85734C28.015 6.85734 27.5287 7.10364 27.2679 7.4997ZM0.000484624 8.14207C0.000484624 8.85064 0.657387 9.42708 1.46452 9.42708C2.27165 9.42708 2.92821 8.85064 2.92821 8.14207C2.92821 7.43409 2.27165 6.85764 1.46452 6.85764C0.657387 6.85764 0.000484624 7.43409 0.000484624 8.14207ZM6.94643 7.36553C6.70969 7.48558 6.54068 7.67862 6.47026 7.91049C6.39951 8.14148 6.43573 8.38336 6.5722 8.59081C6.75395 8.86741 7.09363 9.03926 7.45813 9.03926C7.63653 9.03926 7.81325 8.99776 7.9685 8.9192C8.4564 8.67173 8.62406 8.12235 8.34239 7.69391C8.16031 7.41731 7.82096 7.24547 7.45679 7.24547C7.27806 7.24547 7.10135 7.28696 6.94643 7.36553ZM17.7855 9.13665C17.7855 9.48888 18.1118 9.77519 18.5128 9.77519C18.9142 9.77519 19.2405 9.48888 19.2405 9.13665C19.2405 8.78472 18.9142 8.49841 18.5128 8.49841C18.1118 8.49841 17.7855 8.78472 17.7855 9.13665ZM10.3403 9.07957C10.243 9.22669 10.2172 9.39883 10.2675 9.56391C10.3181 9.72869 10.4385 9.86641 10.6065 9.95145C10.7172 10.0079 10.8429 10.0371 10.97 10.0371C11.2292 10.0371 11.471 9.91496 11.6008 9.7181C11.6977 9.57009 11.7235 9.39825 11.6732 9.23347C11.6226 9.06868 11.5025 8.93097 11.3342 8.84563C11.2235 8.78972 11.0981 8.76 10.9707 8.76C10.7115 8.76 10.4697 8.88242 10.3403 9.07957ZM21.1512 10.9166C21.1512 11.34 21.5438 11.6843 22.026 11.6843C22.5086 11.6843 22.9009 11.34 22.9009 10.9166C22.9009 10.4932 22.5086 10.1489 22.026 10.1489C21.5438 10.1489 21.1512 10.4932 21.1512 10.9166ZM0.148029 11.702C0.148029 12.339 0.738536 12.8572 1.46452 12.8572C2.19083 12.8572 2.78134 12.339 2.78134 11.702C2.78134 11.0649 2.19083 10.5464 1.46452 10.5464C0.738536 10.5464 0.148029 11.0649 0.148029 11.702ZM7.01986 11.037C6.60238 11.2488 6.45853 11.719 6.69996 12.086C6.85555 12.3226 7.14595 12.4697 7.4578 12.4697C7.61071 12.4697 7.76194 12.4341 7.89473 12.367C8.31221 12.1551 8.45607 11.6846 8.21463 11.3183C8.05904 11.0811 7.76865 10.9343 7.45679 10.9343C7.30388 10.9343 7.15265 10.9696 7.01986 11.037ZM24.5172 12.6966C24.5172 13.1912 24.9759 13.5935 25.5392 13.5935C26.1026 13.5935 26.561 13.1912 26.561 12.6966C26.561 12.2019 26.1026 11.7997 25.5392 11.7997C24.9759 11.7997 24.5172 12.2019 24.5172 12.6966ZM27.3664 14.7381C27.3664 15.3043 27.8909 15.7645 28.5357 15.7645C29.1802 15.7645 29.705 15.3043 29.705 14.7381C29.705 14.1726 29.1802 13.712 28.5357 13.712C27.8909 13.712 27.3664 14.1726 27.3664 14.7381ZM22.1786 14.1849C21.8319 14.3615 21.7125 14.7525 21.9127 15.0577C22.0425 15.2542 22.2842 15.3766 22.5434 15.3766C22.6705 15.3766 22.7959 15.3469 22.9063 15.2913C23.254 15.1153 23.3737 14.724 23.1728 14.4191C23.0431 14.2217 22.8016 14.0996 22.5421 14.0996C22.4153 14.0996 22.2896 14.1293 22.1786 14.1849ZM0.295235 15.2619C0.295235 15.8272 0.82002 16.2877 1.46452 16.2877C2.10935 16.2877 2.63413 15.8272 2.63413 15.2619C2.63413 14.696 2.10935 14.2355 1.46452 14.2355C0.82002 14.2355 0.295235 14.696 0.295235 15.2619ZM7.09364 14.7084C6.9253 14.794 6.80492 14.9314 6.75429 15.0965C6.70432 15.2613 6.73014 15.4331 6.82739 15.5812C6.95682 15.778 7.19826 15.9004 7.4578 15.9004C7.58489 15.9004 7.71063 15.8707 7.82096 15.8148C7.98929 15.7292 8.10967 15.5917 8.16031 15.427C8.21061 15.2622 8.18478 15.09 8.08754 14.9426C7.95777 14.7455 7.71634 14.6231 7.45713 14.6231C7.3297 14.6231 7.20396 14.6528 7.09364 14.7084ZM3.43892 17.3031C3.43892 17.7978 3.89731 18.2 4.46066 18.2C5.02467 18.2 5.48306 17.7978 5.48306 17.3031C5.48306 16.8088 5.02467 16.4062 4.46066 16.4062C3.89731 16.4062 3.43892 16.8088 3.43892 17.3031ZM27.2189 18.298C27.2189 18.9351 27.8097 19.4533 28.5357 19.4533C29.2617 19.4533 29.8522 18.9351 29.8522 18.298C29.8522 17.6607 29.2617 17.1425 28.5357 17.1425C27.8097 17.1425 27.2189 17.6607 27.2189 18.298ZM22.0401 18.5667C21.9627 18.6841 21.9422 18.8215 21.9824 18.953C22.0223 19.0846 22.1182 19.1943 22.2527 19.2623C22.3409 19.307 22.4412 19.3306 22.5424 19.3306C22.749 19.3306 22.9421 19.2332 23.0451 19.0757C23.205 18.8327 23.1098 18.5208 22.8332 18.3804C22.7446 18.3357 22.6444 18.3121 22.5431 18.3121C22.3362 18.3121 22.1434 18.4095 22.0401 18.5667ZM7.16741 18.3804C7.03294 18.4481 6.93704 18.5581 6.8968 18.6894C6.85656 18.8212 6.87735 18.958 6.95481 19.0757C7.05843 19.2329 7.2509 19.3306 7.45746 19.3306C7.55907 19.3306 7.65933 19.307 7.74718 19.2623C7.88165 19.1943 7.97789 19.0846 8.01779 18.953C8.0577 18.8215 8.03724 18.6841 7.95978 18.5667C7.8565 18.4095 7.66402 18.3121 7.45713 18.3121C7.35553 18.3121 7.25526 18.3357 7.16741 18.3804ZM18.3995 20.2819C18.199 20.5867 18.3187 20.9781 18.6657 21.1541C18.7767 21.21 18.9018 21.2397 19.0292 21.2397C19.2884 21.2397 19.5302 21.1173 19.6596 20.9204C19.8602 20.6156 19.7408 20.2245 19.3934 20.048C19.2827 19.9921 19.1573 19.9629 19.0302 19.9629C18.7707 19.9629 18.5293 20.0847 18.3995 20.2819ZM10.7594 20.8631C10.7594 21.215 11.0857 21.5013 11.4871 21.5013C11.8881 21.5013 12.2144 21.215 12.2144 20.8631C12.2144 20.5108 11.8881 20.2245 11.4871 20.2245C11.0857 20.2245 10.7594 20.5108 10.7594 20.8631ZM0.19665 21.2156C0.00115497 21.5122 -0.0508197 21.8588 0.050784 22.1902C0.151717 22.5212 0.393822 22.7987 0.732501 22.9699C0.955157 23.0826 1.20766 23.1424 1.46351 23.1424H1.46385C1.98528 23.1424 2.47184 22.8961 2.73238 22.5C2.92788 22.2028 2.97986 21.8562 2.87859 21.5251C2.77732 21.1938 2.53488 20.9163 2.19653 20.7451C1.97388 20.6326 1.72138 20.5726 1.46586 20.5726C0.943755 20.5726 0.457534 20.8189 0.19665 21.2156ZM27.0717 21.8576C27.0717 22.5656 27.7286 23.1421 28.5357 23.1421C29.3428 23.1421 29.9994 22.5656 29.9994 21.8576C29.9994 21.1491 29.3428 20.5729 28.5357 20.5729C27.7286 20.5729 27.0717 21.1491 27.0717 21.8576ZM22.0317 21.0808C21.5438 21.3283 21.3758 21.8776 21.6575 22.3061C21.8399 22.5824 22.1789 22.7542 22.5434 22.7542C22.7218 22.7542 22.8986 22.713 23.0538 22.6345C23.5417 22.3867 23.7094 21.8376 23.428 21.4089C23.246 21.1326 22.9063 20.9607 22.5421 20.9607C22.3634 20.9607 22.187 21.0019 22.0317 21.0808ZM14.7592 21.9971C14.5181 22.3641 14.6616 22.8343 15.0794 23.0456C15.2122 23.1132 15.3634 23.1488 15.516 23.1488C15.8279 23.1488 16.1186 23.0014 16.2742 22.7648C16.5153 22.3985 16.3718 21.928 15.954 21.7161C15.8212 21.649 15.6699 21.6131 15.5174 21.6131C15.2055 21.6131 14.9148 21.7605 14.7592 21.9971ZM3.83728 23.0594C3.66157 23.3269 3.61496 23.6385 3.70584 23.9363C3.79671 24.2343 4.01467 24.4836 4.31915 24.6381C4.51934 24.7393 4.74669 24.7931 4.97672 24.7931C5.44618 24.7931 5.88344 24.5713 6.1175 24.2152C6.29355 23.9477 6.34049 23.6364 6.24962 23.3383C6.15841 23.0403 5.94045 22.7913 5.63597 22.6368C5.43578 22.5353 5.20877 22.4818 4.9784 22.4818C4.50894 22.4818 4.07168 22.7033 3.83728 23.0594ZM11.1186 23.7126C10.9821 23.9198 10.9459 24.1617 11.0163 24.3929C11.087 24.6242 11.2564 24.8179 11.4928 24.9376C11.648 25.0165 11.8241 25.058 12.0028 25.058C12.3673 25.058 12.7067 24.8861 12.8891 24.6092C13.1704 24.1808 13.0027 23.6314 12.5149 23.3842C12.3593 23.3054 12.1832 23.2639 12.0045 23.2639C11.64 23.2639 11.3006 23.4357 11.1186 23.7126ZM21.4416 24.2667C20.8832 24.5495 20.6908 25.1786 21.0137 25.6686C21.2219 25.9852 21.6102 26.1817 22.0274 26.1817C22.2313 26.1817 22.4331 26.1344 22.6108 26.0443C23.1688 25.7609 23.3613 25.1321 23.0387 24.6425C22.8305 24.3256 22.4422 24.129 22.025 24.129C21.8211 24.129 21.6193 24.1767 21.4416 24.2667ZM7.47792 24.9044C7.15567 25.3943 7.34748 26.0231 7.90613 26.3059C8.08385 26.396 8.28538 26.4433 8.4896 26.4433C8.90641 26.4433 9.29505 26.2471 9.50329 25.9301C9.82587 25.4405 9.63339 24.8117 9.07508 24.5283C8.89769 24.4383 8.69582 24.3909 8.49194 24.3909C8.0748 24.3909 7.68649 24.5877 7.47792 24.9044ZM17.8546 25.9346C17.5501 26.089 17.3321 26.338 17.2413 26.6364C17.1504 26.9344 17.197 27.2458 17.3731 27.5129C17.6074 27.8693 18.0447 28.0906 18.5142 28.0906C18.7442 28.0906 18.9716 28.0373 19.1714 27.9358C19.4759 27.7813 19.6938 27.5324 19.7851 27.234C19.8759 26.9359 19.829 26.6249 19.6533 26.3577C19.4189 26.0011 18.9816 25.7798 18.5122 25.7798C18.2821 25.7798 18.0548 25.8336 17.8546 25.9346ZM14.2683 27.6027C13.9296 27.774 13.6871 28.0511 13.5862 28.3825C13.4849 28.7141 13.5369 29.0604 13.7321 29.3576C13.993 29.7534 14.4795 30 15.0013 30H15.0016C15.2568 30 15.5096 29.9403 15.732 29.8276C16.0706 29.656 16.3128 29.3788 16.414 29.0475C16.5153 28.7162 16.4633 28.3701 16.2678 28.0729C16.0069 27.6766 15.521 27.4303 14.9989 27.4303C14.7434 27.4303 14.4906 27.49 14.2683 27.6027Z" fill="url(#paint0_linear_10_240)"/>
<path d="M41.5117 15.2285H40.0556V14.1963H41.2588C41.6553 14.1963 41.9743 14.137 42.2158 14.0186C42.4573 13.9001 42.6351 13.7337 42.749 13.5195C42.8629 13.3008 42.9199 13.0479 42.9199 12.7607C42.9199 12.5146 42.8561 12.2868 42.7285 12.0771C42.6055 11.8675 42.414 11.7012 42.1543 11.5781C41.8945 11.4551 41.5618 11.3936 41.1562 11.3936C40.8509 11.3936 40.5729 11.4482 40.3223 11.5576C40.0716 11.6624 39.8734 11.8151 39.7275 12.0156C39.5817 12.2116 39.5088 12.4463 39.5088 12.7197H37.6289C37.6289 12.2822 37.7223 11.8926 37.9092 11.5508C38.096 11.2044 38.3512 10.9105 38.6748 10.6689C39.0029 10.4229 39.3789 10.236 39.8027 10.1084C40.2311 9.98079 40.6823 9.91699 41.1562 9.91699C41.7077 9.91699 42.2067 9.97852 42.6533 10.1016C43.1045 10.2201 43.4896 10.3978 43.8086 10.6348C44.1276 10.8717 44.3714 11.1657 44.54 11.5166C44.7132 11.8675 44.7998 12.2754 44.7998 12.7402C44.7998 13.082 44.7223 13.4033 44.5674 13.7041C44.4124 14.0049 44.1891 14.2692 43.8974 14.4971C43.6103 14.7249 43.264 14.9049 42.8584 15.0371C42.4573 15.1647 42.0084 15.2285 41.5117 15.2285ZM40.0556 14.6338H41.5117C42.0586 14.6338 42.5439 14.6908 42.9678 14.8047C43.3961 14.9186 43.7562 15.085 44.0478 15.3037C44.3441 15.5225 44.5696 15.7936 44.7246 16.1172C44.8795 16.4362 44.957 16.8031 44.957 17.2178C44.957 17.6826 44.8636 18.0951 44.6767 18.4551C44.4899 18.8151 44.2256 19.1204 43.8838 19.3711C43.5465 19.6217 43.1455 19.8109 42.6806 19.9385C42.2158 20.0661 41.7077 20.1299 41.1562 20.1299C40.7096 20.1299 40.2676 20.0752 39.8301 19.9658C39.3971 19.8519 39.0029 19.6787 38.6474 19.4463C38.2965 19.2139 38.014 18.9154 37.7998 18.5508C37.5902 18.1862 37.4853 17.7487 37.4853 17.2383H39.3721C39.3721 17.5026 39.4473 17.7441 39.5976 17.9629C39.748 18.1771 39.9577 18.348 40.2265 18.4756C40.4954 18.5986 40.8053 18.6602 41.1562 18.6602C41.5618 18.6602 41.9059 18.5986 42.1885 18.4756C42.4756 18.348 42.6943 18.1725 42.8447 17.9492C42.9951 17.7259 43.0703 17.4775 43.0703 17.2041C43.0703 16.9261 43.0316 16.6891 42.9541 16.4932C42.8766 16.2972 42.7604 16.1377 42.6055 16.0146C42.4551 15.887 42.2659 15.7936 42.0381 15.7344C41.8148 15.6751 41.555 15.6455 41.2588 15.6455H40.0556V14.6338ZM47.7187 12.6035H49.5234L49.4551 15.1465C49.4323 15.9167 49.3411 16.582 49.1816 17.1426C49.0267 17.6986 48.8193 18.1657 48.5596 18.5439C48.3043 18.9222 48.0127 19.2275 47.6846 19.46C47.361 19.6924 47.0215 19.8724 46.666 20H46.2353L46.2285 18.5918L46.4404 18.5781C46.6546 18.3503 46.8346 18.127 46.9805 17.9082C47.1308 17.6849 47.2516 17.4456 47.3428 17.1904C47.4339 16.9352 47.5023 16.6436 47.5478 16.3154C47.598 15.9827 47.6299 15.5931 47.6435 15.1465L47.7187 12.6035ZM48.2041 12.6035H52.9961V20H51.1914V14.0869H48.2041V12.6035ZM45.8252 18.5781H54.0283V22.2148H52.2236V20H47.664V22.2148H45.8183L45.8252 18.5781ZM54.8144 16.377V16.2334C54.8144 15.6911 54.8919 15.1921 55.0469 14.7363C55.2018 14.276 55.4274 13.8773 55.7236 13.54C56.0198 13.2028 56.3821 12.9408 56.8105 12.7539C57.2389 12.5625 57.7265 12.4668 58.2734 12.4668C58.8294 12.4668 59.3216 12.5625 59.75 12.7539C60.1829 12.9408 60.5475 13.2028 60.8437 13.54C61.14 13.8773 61.3655 14.276 61.5205 14.7363C61.6754 15.1921 61.7529 15.6911 61.7529 16.2334V16.377C61.7529 16.9147 61.6754 17.4137 61.5205 17.874C61.3655 18.3298 61.14 18.7285 60.8437 19.0703C60.5475 19.4076 60.1852 19.6696 59.7568 19.8564C59.3284 20.0433 58.8385 20.1367 58.2871 20.1367C57.7402 20.1367 57.2503 20.0433 56.8174 19.8564C56.3844 19.6696 56.0198 19.4076 55.7236 19.0703C55.4274 18.7285 55.2018 18.3298 55.0469 17.874C54.8919 17.4137 54.8144 16.9147 54.8144 16.377ZM56.6191 16.2334V16.377C56.6191 16.7005 56.651 17.0036 56.7148 17.2861C56.7786 17.5687 56.8766 17.8171 57.0088 18.0312C57.1409 18.2454 57.3118 18.4141 57.5215 18.5371C57.7357 18.6556 57.9909 18.7148 58.2871 18.7148C58.5788 18.7148 58.8294 18.6556 59.039 18.5371C59.2487 18.4141 59.4196 18.2454 59.5517 18.0312C59.6885 17.8171 59.7887 17.5687 59.8525 17.2861C59.9163 17.0036 59.9482 16.7005 59.9482 16.377V16.2334C59.9482 15.9144 59.9163 15.6159 59.8525 15.3379C59.7887 15.0553 59.6885 14.807 59.5517 14.5928C59.4196 14.374 59.2464 14.2031 59.0322 14.0801C58.8226 13.9525 58.5696 13.8887 58.2734 13.8887C57.9818 13.8887 57.7311 13.9525 57.5215 14.0801C57.3118 14.2031 57.1409 14.374 57.0088 14.5928C56.8766 14.807 56.7786 15.0553 56.7148 15.3379C56.651 15.6159 56.6191 15.9144 56.6191 16.2334ZM64.8701 14.0254V22.8438H63.0586V12.6035H64.7334L64.8701 14.0254ZM69.6211 16.2266V16.3701C69.6211 16.9079 69.5573 17.4069 69.4297 17.8672C69.3066 18.3229 69.1243 18.7217 68.8828 19.0635C68.6413 19.4007 68.3405 19.665 67.9805 19.8564C67.625 20.0433 67.2148 20.1367 66.75 20.1367C66.2943 20.1367 65.8978 20.0501 65.5605 19.877C65.2233 19.6992 64.9385 19.4486 64.706 19.125C64.4736 18.8014 64.2868 18.4255 64.1455 17.9971C64.0088 17.5641 63.9062 17.0924 63.8379 16.582V16.124C63.9062 15.5817 64.0088 15.0895 64.1455 14.6475C64.2868 14.2008 64.4736 13.8158 64.706 13.4922C64.9385 13.1641 65.221 12.9111 65.5537 12.7334C65.8909 12.5557 66.2851 12.4668 66.7363 12.4668C67.2057 12.4668 67.6181 12.5557 67.9736 12.7334C68.3336 12.9111 68.6367 13.1663 68.8828 13.499C69.1289 13.8317 69.3135 14.2282 69.4365 14.6885C69.5596 15.1488 69.6211 15.6615 69.6211 16.2266ZM67.8096 16.3701V16.2266C67.8096 15.8984 67.7799 15.5954 67.7207 15.3174C67.6614 15.0348 67.5703 14.7887 67.4473 14.5791C67.3242 14.3649 67.1647 14.1986 66.9687 14.0801C66.7728 13.9616 66.5358 13.9023 66.2578 13.9023C65.9798 13.9023 65.7405 13.9479 65.54 14.0391C65.3395 14.1302 65.1754 14.2601 65.0478 14.4287C64.9202 14.5973 64.82 14.7979 64.7471 15.0303C64.6787 15.2581 64.6331 15.5111 64.6103 15.7891V16.9238C64.6514 17.2611 64.7311 17.5641 64.8496 17.833C64.9681 18.1019 65.1413 18.3161 65.3691 18.4756C65.6015 18.6351 65.9023 18.7148 66.2715 18.7148C66.5495 18.7148 66.7864 18.6533 66.9824 18.5303C67.1784 18.4072 67.3379 18.2386 67.4609 18.0244C67.584 17.8057 67.6728 17.555 67.7275 17.2725C67.7822 16.9899 67.8096 16.6891 67.8096 16.3701ZM70.6191 16.377V16.2334C70.6191 15.6911 70.6966 15.1921 70.8515 14.7363C71.0065 14.276 71.2321 13.8773 71.5283 13.54C71.8245 13.2028 72.1868 12.9408 72.6152 12.7539C73.0436 12.5625 73.5312 12.4668 74.0781 12.4668C74.6341 12.4668 75.1263 12.5625 75.5547 12.7539C75.9876 12.9408 76.3522 13.2028 76.6484 13.54C76.9446 13.8773 77.1702 14.276 77.3252 14.7363C77.4801 15.1921 77.5576 15.6911 77.5576 16.2334V16.377C77.5576 16.9147 77.4801 17.4137 77.3252 17.874C77.1702 18.3298 76.9446 18.7285 76.6484 19.0703C76.3522 19.4076 75.9899 19.6696 75.5615 19.8564C75.1331 20.0433 74.6432 20.1367 74.0918 20.1367C73.5449 20.1367 73.055 20.0433 72.6221 19.8564C72.1891 19.6696 71.8245 19.4076 71.5283 19.0703C71.2321 18.7285 71.0065 18.3298 70.8515 17.874C70.6966 17.4137 70.6191 16.9147 70.6191 16.377ZM72.4238 16.2334V16.377C72.4238 16.7005 72.4557 17.0036 72.5195 17.2861C72.5833 17.5687 72.6813 17.8171 72.8135 18.0312C72.9456 18.2454 73.1165 18.4141 73.3262 18.5371C73.5403 18.6556 73.7956 18.7148 74.0918 18.7148C74.3834 18.7148 74.6341 18.6556 74.8437 18.5371C75.0534 18.4141 75.2243 18.2454 75.3564 18.0312C75.4931 17.8171 75.5934 17.5687 75.6572 17.2861C75.721 17.0036 75.7529 16.7005 75.7529 16.377V16.2334C75.7529 15.9144 75.721 15.6159 75.6572 15.3379C75.5934 15.0553 75.4931 14.807 75.3564 14.5928C75.2243 14.374 75.0511 14.2031 74.8369 14.0801C74.6273 13.9525 74.3743 13.8887 74.0781 13.8887C73.7864 13.8887 73.5358 13.9525 73.3262 14.0801C73.1165 14.2031 72.9456 14.374 72.8135 14.5928C72.6813 14.807 72.5833 15.0553 72.5195 15.3379C72.4557 15.6159 72.4238 15.9144 72.4238 16.2334ZM82.5068 16.8691H80.1621L80.1484 15.6455H82.0762C82.3633 15.6455 82.598 15.6159 82.7803 15.5566C82.9625 15.4974 83.097 15.4085 83.1836 15.29C83.2747 15.1715 83.3203 15.028 83.3203 14.8594C83.3203 14.7135 83.293 14.5882 83.2383 14.4834C83.1836 14.374 83.1015 14.2852 82.9922 14.2168C82.8874 14.1484 82.7529 14.0983 82.5889 14.0664C82.4293 14.0299 82.2425 14.0117 82.0283 14.0117H80.8047V20H78.9931V12.6035H82.0283C82.5068 12.6035 82.9375 12.6468 83.3203 12.7334C83.7031 12.8154 84.029 12.9408 84.2978 13.1094C84.5667 13.278 84.7718 13.4922 84.9131 13.752C85.0589 14.0072 85.1318 14.3079 85.1318 14.6543C85.1318 14.8822 85.0817 15.0964 84.9814 15.2969C84.8812 15.4974 84.7331 15.6751 84.5371 15.8301C84.3411 15.985 84.0996 16.1126 83.8125 16.2129C83.5254 16.3086 83.1973 16.3678 82.8281 16.3906L82.5068 16.8691ZM82.5068 20H79.6767L80.3467 18.5918H82.5068C82.7711 18.5918 82.9899 18.5599 83.1631 18.4961C83.3362 18.4277 83.4639 18.3298 83.5459 18.2021C83.6325 18.0745 83.6758 17.9196 83.6758 17.7373C83.6758 17.5596 83.6348 17.4069 83.5527 17.2793C83.4752 17.1471 83.3499 17.0469 83.1767 16.9785C83.0081 16.9056 82.7848 16.8691 82.5068 16.8691H80.6406L80.6543 15.6455H82.8213L83.2998 16.1309C83.792 16.1628 84.1999 16.263 84.5234 16.4316C84.847 16.5957 85.0885 16.8053 85.248 17.0605C85.4075 17.3112 85.4873 17.5869 85.4873 17.8877C85.4873 18.2386 85.4212 18.5462 85.289 18.8105C85.1569 19.0749 84.9632 19.2959 84.708 19.4736C84.4528 19.6468 84.1406 19.779 83.7715 19.8701C83.4023 19.9567 82.9808 20 82.5068 20ZM88.0439 14.8799H90.2041C90.8603 14.8799 91.4186 14.9893 91.8789 15.208C92.3437 15.4222 92.6969 15.723 92.9385 16.1104C93.1846 16.4932 93.3076 16.9375 93.3076 17.4434C93.3076 17.8079 93.237 18.1475 93.0957 18.4619C92.959 18.7718 92.7584 19.043 92.4941 19.2754C92.2298 19.5033 91.904 19.681 91.5166 19.8086C91.1338 19.9362 90.6963 20 90.2041 20H86.8818V12.6035H88.6933V18.585H90.2041C90.5185 18.585 90.7692 18.5326 90.956 18.4277C91.1474 18.3184 91.2842 18.1794 91.3662 18.0107C91.4528 17.8376 91.4961 17.653 91.4961 17.457C91.4961 17.2565 91.4528 17.0697 91.3662 16.8965C91.2842 16.7188 91.1474 16.5752 90.956 16.4658C90.7692 16.3564 90.5185 16.3018 90.2041 16.3018H88.0439V14.8799ZM97.8467 20.1367C97.2861 20.1367 96.7825 20.0456 96.3359 19.8633C95.8893 19.681 95.5088 19.4281 95.1943 19.1045C94.8844 18.7764 94.6452 18.3958 94.4765 17.9629C94.3125 17.5254 94.2305 17.056 94.2305 16.5547V16.2812C94.2305 15.7116 94.3125 15.1943 94.4765 14.7295C94.6406 14.2601 94.873 13.8568 95.1738 13.5195C95.4746 13.1823 95.8346 12.9225 96.2539 12.7402C96.6732 12.5579 97.1357 12.4668 97.6416 12.4668C98.1657 12.4668 98.6282 12.5557 99.0293 12.7334C99.4303 12.9066 99.7653 13.1527 100.034 13.4717C100.303 13.7907 100.506 14.1735 100.643 14.6201C100.779 15.0622 100.848 15.5521 100.848 16.0898V16.8486H95.0508V15.6045H99.0703V15.4678C99.0612 15.1807 99.0065 14.9186 98.9062 14.6816C98.806 14.4401 98.651 14.2487 98.4414 14.1074C98.2318 13.9616 97.9606 13.8887 97.6279 13.8887C97.359 13.8887 97.1243 13.9479 96.9238 14.0664C96.7278 14.1803 96.5638 14.3444 96.4316 14.5586C96.304 14.7682 96.2083 15.0189 96.1445 15.3105C96.0807 15.6022 96.0488 15.9258 96.0488 16.2812V16.5547C96.0488 16.8646 96.0898 17.1517 96.1719 17.416C96.2584 17.6803 96.3838 17.9105 96.5478 18.1064C96.7165 18.2979 96.917 18.4482 97.1494 18.5576C97.3864 18.6624 97.6553 18.7148 97.956 18.7148C98.3343 18.7148 98.6761 18.6419 98.9814 18.4961C99.2913 18.3457 99.5602 18.1247 99.7881 17.833L100.697 18.7764C100.542 19.0042 100.333 19.223 100.068 19.4326C99.8086 19.6423 99.4941 19.8132 99.125 19.9453C98.7558 20.0729 98.3297 20.1367 97.8467 20.1367ZM109.14 15.0234V16.4521H105.4V15.0234H109.14ZM115.128 10.0469H116.755L119.476 17.5391L122.189 10.0469H123.823L120.125 20H118.819L115.128 10.0469ZM114.308 10.0469H115.9L116.187 16.9307V20H114.308V10.0469ZM123.044 10.0469H124.644V20H122.764V16.9307L123.044 10.0469ZM132.382 16.7256H134.262C134.212 17.391 134.027 17.9811 133.708 18.4961C133.389 19.0065 132.945 19.4076 132.375 19.6992C131.805 19.9909 131.115 20.1367 130.304 20.1367C129.679 20.1367 129.117 20.0273 128.615 19.8086C128.118 19.5853 127.692 19.2686 127.337 18.8584C126.986 18.4437 126.717 17.9469 126.53 17.3682C126.343 16.7848 126.25 16.1309 126.25 15.4062V14.6475C126.25 13.9229 126.346 13.2689 126.537 12.6855C126.729 12.1022 127.002 11.6055 127.357 11.1953C127.717 10.7806 128.148 10.4616 128.649 10.2383C129.155 10.015 129.72 9.90332 130.345 9.90332C131.156 9.90332 131.842 10.0537 132.402 10.3545C132.963 10.6507 133.398 11.0586 133.708 11.5781C134.018 12.0977 134.205 12.6947 134.269 13.3691H132.389C132.352 12.9499 132.261 12.5944 132.115 12.3027C131.974 12.0111 131.76 11.79 131.473 11.6396C131.19 11.4847 130.814 11.4072 130.345 11.4072C129.98 11.4072 129.659 11.4756 129.381 11.6123C129.107 11.749 128.88 11.9541 128.697 12.2275C128.515 12.4964 128.378 12.8337 128.287 13.2393C128.196 13.6403 128.15 14.1051 128.15 14.6338V15.4062C128.15 15.9121 128.191 16.3656 128.273 16.7666C128.355 17.1676 128.483 17.5072 128.656 17.7852C128.829 18.0632 129.053 18.2751 129.326 18.4209C129.6 18.5667 129.925 18.6396 130.304 18.6396C130.764 18.6396 131.138 18.5667 131.425 18.4209C131.716 18.2751 131.937 18.0609 132.088 17.7783C132.243 17.4958 132.341 17.1449 132.382 16.7256ZM137.618 10.0469V20H135.738V10.0469H137.618ZM143.545 10.0469L139.614 15.8027H137.146L136.9 14.1484H138.596L141.255 10.0469H143.545ZM141.61 20L138.609 15.502L139.874 14.1143L143.859 20H141.61Z" fill="#02758F"/>
<defs>
<linearGradient id="paint0_linear_10_240" x1="4.18879" y1="28.487" x2="26.1814" y2="-7.14186" gradientUnits="userSpaceOnUse">
<stop stop-color="#4BC9D4"/>
<stop offset="1" stop-color="#006C9B"/>
</linearGradient>
</defs>
</svg>
