<svg width="60" height="70" viewBox="0 0 60 70" fill="none" xmlns="http://www.w3.org/2000/svg">
<path d="M28.5365 1.18379C27.8592 1.57545 27.3743 2.20654 27.1724 2.96169C26.9699 3.71752 27.0739 4.50553 27.4642 5.18289C27.9859 6.08626 28.9584 6.6476 30.0026 6.6476C30.5136 6.6476 31.0186 6.51212 31.4639 6.25526C32.8622 5.4478 33.3424 3.6538 32.5356 2.25549C32.0139 1.35213 31.0421 0.791458 29.9979 0.791458C29.4869 0.791458 28.9812 0.927605 28.5365 1.18379ZM21.657 5.49542C20.4002 6.22173 19.9676 7.83532 20.6933 9.09212C21.162 9.90562 22.0373 10.4093 22.9762 10.4093C23.4362 10.4093 23.8903 10.2872 24.2906 10.0565C25.5474 9.3302 25.98 7.71594 25.2544 6.45914C24.7849 5.64698 23.9104 5.14265 22.9721 5.14265C22.5121 5.14265 22.0574 5.26404 21.657 5.49542ZM40.9939 10.0673C40.3494 11.1839 40.733 12.6164 41.8497 13.2609C42.2051 13.4661 42.6088 13.5748 43.0179 13.5748C43.8509 13.5748 44.6282 13.1268 45.0446 12.4045C45.3565 11.8639 45.4397 11.2335 45.278 10.6306C45.1164 10.0277 44.7294 9.52268 44.1882 9.21016C43.8328 9.00561 43.429 8.89696 43.0206 8.89696C42.187 8.89696 41.4104 9.34496 40.9939 10.0673ZM14.7788 9.80704C13.6621 10.4515 13.2779 11.8847 13.923 13.002C14.3395 13.7236 15.1155 14.1716 15.9497 14.1716H15.9504C16.3582 14.1716 16.7619 14.0637 17.118 13.8584C18.2347 13.2126 18.6176 11.7794 17.9738 10.6628C17.5573 9.94117 16.78 9.49317 15.9464 9.49317C15.538 9.49317 15.1342 9.60182 14.7788 9.80704ZM34.223 13.0778C33.95 13.5506 33.8769 14.1012 34.0184 14.6284C34.16 15.1562 34.498 15.5968 34.9708 15.8691C35.2813 16.0495 35.6347 16.144 35.9915 16.144C36.7205 16.144 37.3992 15.7524 37.7634 15.1213C38.3267 14.1448 37.9914 12.8934 37.0156 12.3294C36.7044 12.1496 36.3516 12.0544 35.9942 12.0544C35.2659 12.0544 34.5865 12.4467 34.223 13.0778ZM47.7648 13.9751C47.4127 14.5848 47.3195 15.295 47.5019 15.9744C47.6836 16.6531 48.1196 17.2211 48.7279 17.5732C49.1282 17.8039 49.5829 17.9266 50.0437 17.9266C50.9819 17.9266 51.8564 17.4209 52.3252 16.6095C52.6773 15.9998 52.7705 15.2903 52.5888 14.6109C52.4064 13.9315 51.9705 13.3635 51.3615 13.0121C50.9611 12.7807 50.5071 12.6586 50.047 12.6586C49.1081 12.6586 48.2336 13.1637 47.7648 13.9751ZM28.8397 17.5591C28.8397 18.1989 29.3601 18.72 29.9999 18.72C30.6397 18.72 31.1608 18.1989 31.1608 17.5591C31.1608 16.9193 30.6397 16.3989 29.9999 16.3989C29.3601 16.3989 28.8397 16.9193 28.8397 17.5591ZM54.5357 17.8844C53.7289 19.2833 54.2091 21.0773 55.6074 21.8848C56.052 22.141 56.5577 22.2771 57.0688 22.2771C58.113 22.2771 59.0847 21.7158 59.6065 20.8124C59.9975 20.1358 60.1014 19.3464 59.8989 18.5912C59.697 17.8361 59.2122 17.2043 58.5355 16.8133C58.0902 16.5571 57.5845 16.4203 57.0734 16.4203C56.0299 16.4203 55.0575 16.9817 54.5357 17.8844ZM0.000969247 19.3484C0.000969247 20.9633 1.31477 22.2771 2.92903 22.2771C4.54329 22.2771 5.85643 20.9633 5.85643 19.3484C5.85643 17.7348 4.54329 16.421 2.92903 16.421C1.31477 16.421 0.000969247 17.7348 0.000969247 19.3484ZM13.8929 17.5786C13.4194 17.8522 13.0814 18.2921 12.9405 18.8206C12.799 19.3471 12.8715 19.8983 13.1444 20.3711C13.5079 21.0016 14.1873 21.3932 14.9163 21.3932C15.2731 21.3932 15.6265 21.2987 15.937 21.1196C16.9128 20.5556 17.2481 19.3035 16.6848 18.327C16.3206 17.6966 15.6419 17.3049 14.9136 17.3049C14.5561 17.3049 14.2027 17.3995 13.8929 17.5786ZM35.571 21.6152C35.571 22.418 36.2235 23.0705 37.0257 23.0705C37.8284 23.0705 38.481 22.418 38.481 21.6152C38.481 20.8131 37.8284 20.1606 37.0257 20.1606C36.2235 20.1606 35.571 20.8131 35.571 21.6152ZM20.6805 21.4851C20.486 21.8204 20.4344 22.2128 20.535 22.589C20.6363 22.9646 20.877 23.2784 21.213 23.4722C21.4343 23.601 21.6858 23.6674 21.94 23.6674C22.4584 23.6674 22.942 23.3891 23.2015 22.9404C23.3953 22.6031 23.447 22.2114 23.3464 21.8359C23.2451 21.4603 23.005 21.1464 22.6683 20.9519C22.447 20.8245 22.1962 20.7568 21.9414 20.7568C21.4229 20.7568 20.9394 21.0358 20.6805 21.4851ZM42.3023 25.672C42.3023 26.637 43.0877 27.4217 44.0521 27.4217C45.0171 27.4217 45.8018 26.637 45.8018 25.672C45.8018 24.7069 45.0171 23.9222 44.0521 23.9222C43.0877 23.9222 42.3023 24.7069 42.3023 25.672ZM0.296058 27.462C0.296058 28.9139 1.47707 30.0949 2.92903 30.0949C4.38167 30.0949 5.56269 28.9139 5.56269 27.462C5.56269 26.01 4.38167 24.8283 2.92903 24.8283C1.47707 24.8283 0.296058 26.01 0.296058 27.462ZM14.0397 25.9463C13.2048 26.4291 12.9171 27.5009 13.3999 28.3372C13.7111 28.8764 14.2919 29.2117 14.9156 29.2117C15.2214 29.2117 15.5239 29.1305 15.7895 28.9776C16.6244 28.4948 16.9121 27.4224 16.4293 26.5874C16.1181 26.0469 15.5373 25.7122 14.9136 25.7122C14.6078 25.7122 14.3053 25.7927 14.0397 25.9463ZM49.0343 29.7288C49.0343 30.8561 49.9518 31.7729 51.0785 31.7729C52.2052 31.7729 53.122 30.8561 53.122 29.7288C53.122 28.6014 52.2052 27.6846 51.0785 27.6846C49.9518 27.6846 49.0343 28.6014 49.0343 29.7288ZM54.7329 34.3817C54.7329 35.6721 55.7818 36.721 57.0714 36.721C58.3604 36.721 59.41 35.6721 59.41 34.3817C59.41 33.0927 58.3604 32.0432 57.0714 32.0432C55.7818 32.0432 54.7329 33.0927 54.7329 34.3817ZM44.3572 33.1209C43.6638 33.5233 43.425 34.4146 43.8254 35.1101C44.0849 35.5581 44.5685 35.8371 45.0869 35.8371C45.3411 35.8371 45.5919 35.7693 45.8125 35.6426C46.508 35.2415 46.7474 34.3495 46.3457 33.6547C46.0862 33.2047 45.6033 32.9264 45.0842 32.9264C44.8307 32.9264 44.5792 32.9942 44.3572 33.1209ZM0.590471 35.5755C0.590471 36.8638 1.64004 37.9134 2.92903 37.9134C4.2187 37.9134 5.26827 36.8638 5.26827 35.5755C5.26827 34.2858 4.2187 33.2363 2.92903 33.2363C1.64004 33.2363 0.590471 34.2858 0.590471 35.5755ZM14.1873 34.314C13.8506 34.5092 13.6098 34.8224 13.5086 35.1986C13.4086 35.5742 13.4603 35.9658 13.6548 36.3032C13.9136 36.7518 14.3965 37.0308 14.9156 37.0308C15.1698 37.0308 15.4213 36.9631 15.6419 36.8357C15.9786 36.6405 16.2193 36.3273 16.3206 35.9517C16.4212 35.5762 16.3696 35.1838 16.1751 34.8478C15.9155 34.3985 15.4327 34.1195 14.9143 34.1195C14.6594 34.1195 14.4079 34.1872 14.1873 34.314ZM6.87783 40.2278C6.87783 41.3552 7.79462 42.272 8.92131 42.272C10.0493 42.272 10.9661 41.3552 10.9661 40.2278C10.9661 39.1011 10.0493 38.1837 8.92131 38.1837C7.79462 38.1837 6.87783 39.1011 6.87783 40.2278ZM54.4378 42.4953C54.4378 43.9472 55.6195 45.1283 57.0714 45.1283C58.5234 45.1283 59.7044 43.9472 59.7044 42.4953C59.7044 41.0427 58.5234 39.8616 57.0714 39.8616C55.6195 39.8616 54.4378 41.0427 54.4378 42.4953ZM44.0802 43.1076C43.9253 43.3752 43.8844 43.6884 43.9649 43.9882C44.0447 44.2879 44.2365 44.5381 44.5054 44.693C44.6818 44.7949 44.8823 44.8486 45.0849 44.8486C45.498 44.8486 45.8843 44.6266 46.0902 44.2678C46.4101 43.7139 46.2196 43.003 45.6663 42.6831C45.4893 42.5811 45.2888 42.5275 45.0862 42.5275C44.6724 42.5275 44.2868 42.7495 44.0802 43.1076ZM14.3348 42.6831C14.0659 42.8373 13.8741 43.0881 13.7936 43.3873C13.7131 43.6877 13.7547 43.9996 13.9096 44.2678C14.1169 44.6259 14.5018 44.8486 14.9149 44.8486C15.1181 44.8486 15.3187 44.7949 15.4944 44.693C15.7633 44.5381 15.9558 44.2879 16.0356 43.9882C16.1154 43.6884 16.0745 43.3752 15.9196 43.1076C15.713 42.7495 15.328 42.5275 14.9143 42.5275C14.7111 42.5275 14.5105 42.5811 14.3348 42.6831ZM36.799 47.0168C36.3979 47.7116 36.6373 48.6036 37.3315 49.0046C37.5535 49.1321 37.8036 49.1998 38.0585 49.1998C38.5769 49.1998 39.0604 48.9208 39.3193 48.4721C39.7203 47.7773 39.4816 46.886 38.7868 46.4837C38.5655 46.3562 38.3146 46.2898 38.0605 46.2898C37.5414 46.2898 37.0585 46.5675 36.799 47.0168ZM21.5188 48.3414C21.5188 49.1435 22.1714 49.796 22.9742 49.796C23.7763 49.796 24.4288 49.1435 24.4288 48.3414C24.4288 47.5386 23.7763 46.886 22.9742 46.886C22.1714 46.886 21.5188 47.5386 21.5188 48.3414ZM0.3933 49.1448C0.00230994 49.8208 -0.101639 50.6108 0.101568 51.366C0.303434 52.1205 0.787643 52.7529 1.465 53.1432C1.91031 53.4001 2.41532 53.5362 2.92702 53.5362H2.92769C3.97056 53.5362 4.94367 52.9749 5.46477 52.0722C5.85576 51.3948 5.95971 50.6048 5.75717 49.8503C5.55464 49.0952 5.06975 48.4627 4.39307 48.0724C3.94775 47.8162 3.44275 47.6794 2.93172 47.6794C1.88751 47.6794 0.915067 48.2408 0.3933 49.1448ZM54.1434 50.6082C54.1434 52.2218 55.4572 53.5356 57.0714 53.5356C58.6857 53.5356 59.9988 52.2218 59.9988 50.6082C59.9988 48.9932 58.6857 47.6801 57.0714 47.6801C55.4572 47.6801 54.1434 48.9932 54.1434 50.6082ZM44.0635 48.8376C43.0877 49.4017 42.7517 50.6538 43.315 51.6302C43.6799 52.26 44.3579 52.6516 45.0869 52.6516C45.4437 52.6516 45.7971 52.5577 46.1076 52.3787C47.0834 51.814 47.4187 50.5626 46.8561 49.5854C46.4919 48.9557 45.8125 48.564 45.0842 48.564C44.7267 48.564 44.374 48.6579 44.0635 48.8376ZM29.5184 50.9261C29.0362 51.7624 29.3232 52.8341 30.1588 53.3156C30.4244 53.4698 30.7269 53.551 31.032 53.551C31.6557 53.551 32.2372 53.215 32.5484 52.6758C33.0306 51.8408 32.7435 50.7684 31.9079 50.2856C31.6423 50.1327 31.3399 50.0509 31.0347 50.0509C30.411 50.0509 29.8296 50.3868 29.5184 50.9261ZM7.67457 53.3471C7.32315 53.9567 7.22992 54.6669 7.41167 55.3456C7.59342 56.025 8.02934 56.5931 8.63829 56.9452C9.03867 57.1759 9.49337 57.2986 9.95344 57.2986C10.8924 57.2986 11.7669 56.7929 12.235 55.9814C12.5871 55.3718 12.681 54.6623 12.4992 53.9829C12.3168 53.3035 11.8809 52.7361 11.2719 52.384C10.8716 52.1527 10.4175 52.0306 9.9568 52.0306C9.01789 52.0306 8.14336 52.5356 7.67457 53.3471ZM22.2371 54.836C21.9641 55.3081 21.8917 55.8594 22.0326 56.3865C22.1741 56.9136 22.5127 57.3549 22.9856 57.6279C23.2961 57.8076 23.6482 57.9022 24.0056 57.9022C24.7346 57.9022 25.4133 57.5105 25.7781 56.8794C26.3408 55.903 26.0055 54.6509 25.0297 54.0875C24.7185 53.9078 24.3664 53.8132 24.009 53.8132C23.28 53.8132 22.6013 54.2049 22.2371 54.836ZM42.8831 56.0988C41.7665 56.7433 41.3815 58.1771 42.0274 59.2938C42.4439 60.0154 43.2205 60.4634 44.0548 60.4634C44.4625 60.4634 44.8662 60.3554 45.2217 60.1502C46.3377 59.5044 46.7226 58.0712 46.0774 56.9552C45.661 56.2329 44.8843 55.7849 44.0501 55.7849C43.6423 55.7849 43.2386 55.8936 42.8831 56.0988ZM14.9558 57.5521C14.3113 58.6687 14.695 60.1019 15.8123 60.7464C16.1677 60.9516 16.5708 61.0596 16.9792 61.0596C17.8128 61.0596 18.5901 60.6123 19.0066 59.89C19.6517 58.774 19.2668 57.3408 18.1502 56.695C17.7954 56.4898 17.3916 56.3818 16.9839 56.3818C16.1496 56.3818 15.373 56.8305 14.9558 57.5521ZM35.7092 59.9C35.1002 60.2521 34.6643 60.8195 34.4825 61.4995C34.3008 62.1789 34.394 62.8885 34.7461 63.4974C35.2149 64.3096 36.0894 64.8139 37.0283 64.8139C37.4884 64.8139 37.9431 64.6925 38.3428 64.4611C38.9518 64.1091 39.3877 63.5417 39.5701 62.8616C39.7519 62.1823 39.658 61.4734 39.3065 60.8644C38.8377 60.0516 37.9632 59.5473 37.0243 59.5473C36.5642 59.5473 36.1095 59.67 35.7092 59.9ZM28.5365 63.702C27.8592 64.0923 27.3743 64.724 27.1724 65.4792C26.9699 66.235 27.0739 67.0244 27.4642 67.7017C27.9859 68.6038 28.959 69.1658 30.0026 69.1658H30.0033C30.5136 69.1658 31.0193 69.0296 31.4639 68.7728C32.1413 68.3818 32.6255 67.75 32.828 66.9949C33.0306 66.2397 32.9266 65.451 32.5356 64.7737C32.0139 63.8703 31.0421 63.309 29.9979 63.309C29.4869 63.309 28.9812 63.4451 28.5365 63.702Z" fill="url(#paint0_linear_83_394)"/>
<defs>
<linearGradient id="paint0_linear_83_394" x1="8.37757" y1="65.7174" x2="61.1499" y2="-9.30481" gradientUnits="userSpaceOnUse">
<stop stop-color="#4BC9D4"/>
<stop offset="1" stop-color="#006C9B"/>
</linearGradient>
</defs>
</svg>
